<?xml version="1.0" encoding="UTF-8" standalone="no"?>
<!-- Generator: Adobe Illustrator 19.0.0, SVG Export Plug-In . SVG Version: 6.00 Build 0)  -->

<svg
   xmlns:dc="http://purl.org/dc/elements/1.1/"
   xmlns:cc="http://creativecommons.org/ns#"
   xmlns:rdf="http://www.w3.org/1999/02/22-rdf-syntax-ns#"
   xmlns:svg="http://www.w3.org/2000/svg"
   xmlns="http://www.w3.org/2000/svg"
   xmlns:sodipodi="http://sodipodi.sourceforge.net/DTD/sodipodi-0.dtd"
   xmlns:inkscape="http://www.inkscape.org/namespaces/inkscape"
   version="1.1"
   id="Layer_1"
   x="0px"
   y="0px"
   viewBox="0 0 562.04783 241.91516"
   xml:space="preserve"
   inkscape:version="0.92.2 (5c3e80d, 2017-08-06)"
   sodipodi:docname="minhq.svg"
   width="562.04785"
   height="241.91516"
   inkscape:export-filename="P:\gocode\src\github.com\martinthomson\minhq\minhq.png"
   inkscape:export-xdpi="90"
   inkscape:export-ydpi="90"><metadata
     id="metadata51"><rdf:RDF><cc:Work
         rdf:about=""><dc:format>image/svg+xml</dc:format><dc:type
           rdf:resource="http://purl.org/dc/dcmitype/StillImage" /><dc:title></dc:title></cc:Work></rdf:RDF></metadata><defs
     id="defs49" /><sodipodi:namedview
     pagecolor="#ffffff"
     bordercolor="#666666"
     borderopacity="1"
     objecttolerance="10"
     gridtolerance="10"
     guidetolerance="10"
     inkscape:pageopacity="0"
     inkscape:pageshadow="2"
     inkscape:window-width="2142"
     inkscape:window-height="739"
     id="namedview47"
     showgrid="false"
     inkscape:zoom="1.9023438"
     inkscape:cx="102.91931"
     inkscape:cy="140.32401"
     inkscape:window-x="4"
     inkscape:window-y="0"
     inkscape:window-maximized="0"
     inkscape:current-layer="Layer_1"
     fit-margin-top="0"
     fit-margin-left="0"
     fit-margin-right="0"
     fit-margin-bottom="0" /><rect
     style="opacity:1;fill:#25455b;fill-opacity:1;stroke:none;stroke-width:0.98851019;stroke-opacity:1"
     id="rect4706"
     width="562.04785"
     height="241.91516"
     x="0"
     y="0" /><g
     id="g17"
     transform="matrix(0.47345203,0,0,0.47345203,22.187366,14.084836)" /><g
     id="g19"
     transform="matrix(0.47345203,0,0,0.47345203,22.187366,14.084836)" /><g
     id="g21"
     transform="matrix(0.47345203,0,0,0.47345203,22.187366,14.084836)" /><g
     id="g23"
     transform="matrix(0.47345203,0,0,0.47345203,22.187366,14.084836)" /><g
     id="g25"
     transform="matrix(0.47345203,0,0,0.47345203,22.187366,14.084836)" /><g
     id="g27"
     transform="matrix(0.47345203,0,0,0.47345203,22.187366,14.084836)" /><g
     id="g29"
     transform="matrix(0.47345203,0,0,0.47345203,22.187366,14.084836)" /><g
     id="g31"
     transform="matrix(0.47345203,0,0,0.47345203,22.187366,14.084836)" /><g
     id="g33"
     transform="matrix(0.47345203,0,0,0.47345203,22.187366,14.084836)" /><g
     id="g35"
     transform="matrix(0.47345203,0,0,0.47345203,22.187366,14.084836)" /><g
     id="g37"
     transform="matrix(0.47345203,0,0,0.47345203,22.187366,14.084836)" /><g
     id="g39"
     transform="matrix(0.47345203,0,0,0.47345203,22.187366,14.084836)" /><g
     id="g41"
     transform="matrix(0.47345203,0,0,0.47345203,22.187366,14.084836)" /><g
     id="g43"
     transform="matrix(0.47345203,0,0,0.47345203,22.187366,14.084836)" /><g
     id="g45"
     transform="matrix(0.47345203,0,0,0.47345203,22.187366,14.084836)" /><text
     xml:space="preserve"
     style="font-style:normal;font-weight:normal;line-height:0%;font-family:sans-serif;letter-spacing:0px;word-spacing:0px;fill:#000000;fill-opacity:1;stroke:none;stroke-width:1px;stroke-linecap:butt;stroke-linejoin:miter;stroke-opacity:1"
     x="378.12741"
     y="113.0423"
     id="text4204"><tspan
       sodipodi:role="line"
       id="tspan4206"
       x="378.12741"
       y="113.0423"
       style="font-size:18.93808174px;line-height:1.25"> </tspan></text>
<path
     style="fill:#38c3e6;fill-opacity:1;stroke:#38c3e6;stroke-width:0.47345203;stroke-opacity:1"
     d="m 133.49362,34.972851 111.06584,63.6621 V 139.37869 L 133.49358,75.716596 Z"
     id="rect4324"
     inkscape:connector-curvature="0"
     sodipodi:nodetypes="ccccc" /><path
     sodipodi:nodetypes="ccccc"
     inkscape:connector-curvature="0"
     id="path4328"
     d="M 133.54878,34.972851 22.482902,98.634951 V 139.37869 L 133.54878,75.716596 Z"
     style="fill:#38c3e6;fill-opacity:1;stroke:#38c3e6;stroke-width:0.47345203;stroke-opacity:1" /><path
     style="fill:#38c3e6;fill-opacity:1;stroke:#38c3e6;stroke-width:0.47345203;stroke-opacity:1"
     d="M 133.54878,203.62844 22.482902,139.96634 V 99.222599 L 133.54878,162.8847 Z"
     id="path4338"
     inkscape:connector-curvature="0"
     sodipodi:nodetypes="ccccc" /><g
     id="g4723"
     style="fill:#ff540e;fill-opacity:1"><rect
       ry="5.0212679"
       y="1.1126139"
       x="151.28531"
       height="105.51463"
       width="12.090349"
       id="rect4533-2"
       style="opacity:1;fill:#ff540e;fill-opacity:1;stroke:none;stroke-width:0.94451654;stroke-opacity:0.43987343" /><rect
       ry="5.0898829"
       y="52.590656"
       x="114.10326"
       height="53.997009"
       width="12.090349"
       id="rect4533-0-0"
       style="opacity:1;fill:#ff540e;fill-opacity:1;stroke:none;stroke-width:0.67567545;stroke-opacity:0.43987343" /></g><path
     style="fill:#25455b;fill-opacity:1;stroke-width:0.47345203"
     d="m 53.112083,50.425802 c 9.78676,0.246967 17.143073,7.722173 24.673171,12.998554 7.051297,5.280041 13.553696,11.947723 21.998395,14.891856 9.359481,1.358486 18.422531,-2.125056 27.722321,-2.725294 12.70054,-1.507679 26.61922,-0.04668 36.9698,8.123519 12.6695,9.299033 22.48924,23.349603 24.67118,39.109143 0.80899,7.50665 -2.48696,14.89102 -7.81875,20.07838 -8.25581,9.08933 -18.95191,15.45434 -29.69816,21.15668 -2.14557,0.15093 -4.71255,-1.90988 -3.1511,-4.07916 1.82944,-2.61129 5.14856,-5.19156 3.43462,-8.78227 -1.39322,-2.91071 -4.29285,-4.89117 -5.20049,-8.13086 -3.53912,-8.47656 -0.1485,-19.83988 8.66748,-23.48216 1.98404,-0.85881 6.44538,-0.9445 5.27113,-4.1135 -1.59273,-2.72944 -4.99942,-0.36372 -7.19102,0.26095 -5.34048,2.41253 -9.40157,7.17212 -11.39772,12.63678 -5.2342,-6.18852 -13.22856,-9.45641 -21.24343,-9.59359 -4.31422,-0.4575 -8.63257,-1.13775 -12.74861,-2.55168 1.42844,-4.76074 2.51636,-10.79979 -0.88097,-14.92161 -2.34006,-0.93309 -3.95457,2.10238 -2.5772,3.90552 0.88684,3.57479 0.72556,7.90386 -1.72663,10.79143 -7.672366,4.06578 -15.344846,8.13135 -23.01715,12.19727 -2.280813,-0.55918 -6.239549,-2.00315 -4.933645,-5.09258 1.545135,-2.78748 3.882558,-5.46125 4.192962,-8.73518 -2.022331,-4.74955 -5.112524,-9.13272 -7.702141,-13.63547 -8.986853,-14.137644 -19.433165,-27.587304 -32.49595,-38.154588 -2.870409,-1.736986 -5.49025,-5.097445 -4.768833,-8.583117 1.493179,-2.300977 4.87438,-1.652996 7.164576,-2.529427 3.88131,-0.752732 7.83256,-1.112295 11.786164,-1.039596 z"
     id="path4186"
     inkscape:connector-curvature="0" /><path
     style="fill:#25455b;fill-opacity:1;stroke-width:0.47345203"
     d="m 193.14964,137.32992 c 12.39147,9.0112 17.66432,24.17279 24.00999,37.46303 3.33284,7.47053 7.00283,14.71357 11.34079,21.6446 -13.92408,-6.95493 -28.97151,-14.90355 -36.43741,-29.29387 -3.66337,-7.11362 -6.48471,-15.47531 -4.75153,-23.45761 1.87011,-2.17294 3.48445,-4.55116 4.96308,-7.00364 0.29169,0.21583 0.58339,0.43166 0.87508,0.64749 z"
     id="rect4181"
     inkscape:connector-curvature="0" /><path
     style="fill:#f6fcfe;fill-opacity:1;stroke-width:0.47345203"
     d="m 31.272334,47.302166 c -1.538878,0.51947 -2.630706,1.880782 -2.803399,3.494732 -0.444297,4.099233 0.450034,12.023561 6.625346,15.710341 2.052702,1.228272 8.192825,6.546431 15.933638,15.602882 6.025993,7.04836 14.64968,18.273029 22.146121,32.350699 l -6.267009,11.93472 -2.39116,0.0417 c -2.326638,0.0176 -3.243506,1.10941 -3.444742,3.28812 -0.194878,2.10995 1.307187,3.66429 3.604982,3.75249 l 14.389997,0.55236 c 1.265348,0.0486 2.487545,0.4483 3.609215,-0.14301 l 23.430827,-12.41485 c 5.72395,2.17139 10.81241,2.73557 15.35218,3.22568 3.8943,0.4283 7.25818,0.79594 9.88771,2.15973 4.65529,2.41671 7.66061,6.32185 8.48599,7.49075 -0.25555,6.63891 2.10975,13.29339 6.7486,18.49972 l -5.10163,8.35239 -3.64163,-0.10557 c -2.29852,-0.0666 -4.41191,1.4509 -4.32795,3.74887 0.0928,2.54154 1.6389,4.42081 4.18046,4.18409 5.32224,0.21229 7.02706,0.62256 13.00004,0.88032 1.09926,0.48122 2.35118,0.456 3.43264,-0.0564 0.85361,-0.40473 14.35254,-6.84471 25.82939,-16.53936 0.75618,5.89706 3.06315,13.90028 9.18486,22.86666 8.93215,13.08377 27.43539,22.60207 38.53368,27.41688 5.01493,2.17292 8.51693,3.38156 8.95541,3.5294 2.01816,0.6927 4.23499,-0.25943 5.13094,-2.20212 0.88847,-1.93936 0.17306,-4.2414 -1.67009,-5.32412 -7.87507,-4.65318 -13.37639,-16.8252 -19.19784,-29.71126 -6.65955,-14.73817 -13.52976,-29.92507 -25.45168,-37.64497 2.33878,-9.07167 -0.0363,-20.53726 -6.77961,-32.13342 -7.22134,-12.420778 -18.29972,-22.772276 -29.62973,-27.681462 -14.75995,-6.395348 -31.24531,-3.749963 -43.28003,-1.821266 -6.02959,0.964796 -12.2638,1.968481 -14.48068,1.007932 C 97.68424,70.062395 91.560952,65.235992 85.632902,60.573006 78.103551,54.646863 70.321401,48.520877 64.027056,45.793596 51.739451,40.467851 32.096791,47.017918 31.272349,47.302266 Z m 8.094194,12.055043 c -1.648699,-0.986982 -2.309756,-3.192108 -2.541921,-5.0302 6.209155,-1.686219 17.34674,-3.725003 23.890888,-0.889484 5.305745,2.298931 12.983551,8.343574 19.763962,13.678607 6.635293,5.22397 12.904162,10.16162 17.475706,12.14243 4.449417,1.927892 10.917787,0.886624 19.112667,-0.423664 11.63975,-1.869923 26.12064,-4.191012 38.64804,1.237002 20.65656,8.950289 37.38495,37.36164 30.86159,52.41702 -5.94702,13.72525 -28.08789,25.80346 -34.34806,29.00472 l -1.39649,-0.60508 2.69032,-3.38662 c 2.32725,-2.92645 2.18928,-7.12086 -0.31638,-9.7623 -4.5728,-4.81423 -6.20607,-11.55115 -4.25722,-17.57132 1.755,-5.4199 5.8988,-9.11501 11.36776,-10.14153 2.26058,-0.42518 3.74821,-2.60144 3.32349,-4.86182 -0.42519,-2.26057 -2.60144,-3.7482 -4.85963,-3.32855 -7.3551,1.38348 -13.34179,6.03564 -16.53363,12.70349 -1.85499,-1.75406 -4.22042,-3.6023 -7.06248,-5.07569 -4.0125,-2.08345 -8.29466,-2.55281 -12.82208,-3.0436 -3.5294,-0.39117 -7.14802,-0.78489 -11.01615,-1.95838 0.94885,-3.25109 1.52401,-7.91767 -0.35021,-13.00945 -0.79539,-2.160409 -3.18434,-3.268329 -5.34502,-2.473602 -2.15822,0.790324 -3.26832,3.184352 -2.4736,5.345022 1.51536,4.13104 0.31321,7.84168 -0.41972,9.49153 l -22.214708,11.7736 -3.037715,-1.31621 4.065485,-7.92992 c 0.61597,-1.19799 0.612912,-2.61602 -1.23e-4,-3.8139 C 66.723109,83.74693 45.649655,63.11479 39.366528,59.357209 Z M 188.24699,152.55305 c -0.55769,-4.04946 -0.15575,-6.73829 -0.034,-7.38185 1.40866,-1.67182 2.69183,-3.40403 3.79362,-5.1787 9.26499,6.72633 15.3661,20.22404 21.289,33.32321 2.97352,6.59121 5.87275,13.00518 9.15164,18.58461 -9.50317,-4.85008 -20.60113,-11.88671 -26.43286,-20.41815 -5.34864,-7.84477 -7.17538,-14.62282 -7.7674,-18.92912 z"
     id="path15"
     inkscape:connector-curvature="0"
     sodipodi:nodetypes="cccccccssscccccccssccccccccccccscsccccccscscssccccccccccccccccccccccccccccc" /><path
     style="fill:#38c3e6;fill-opacity:1;stroke:#38c3e6;stroke-width:0.47345203;stroke-opacity:1"
     d="m 133.49362,203.62844 111.06584,-63.6621 V 99.222599 L 133.49358,162.8847 Z"
     id="path4384"
     inkscape:connector-curvature="0"
     sodipodi:nodetypes="ccccc" /><path
     sodipodi:type="inkscape:offset"
     inkscape:radius="3.8795795"
     inkscape:original="M 588.07031 586.60938 L 562.9375 601.06836 L 562.9375 625.52148 L 562.9375 686.60938 L 591.51172 686.60938 L 591.51172 617.7832 L 613.20117 630.14648 L 634.68555 617.78516 L 634.68555 686.60938 L 663.26172 686.60938 L 663.26172 625.52148 L 663.26172 601.34375 L 663.26172 601.06836 L 638.13086 586.60938 L 613.10156 601.00977 L 588.07031 586.60938 z "
     style="fill:#38c3e6;fill-opacity:1;stroke:none;stroke-opacity:1"
     id="path4231"
     d="m 588.15625,582.73047 a 3.8799675,3.8799675 0 0 0 -2.02148,0.51562 l -25.13282,14.45899 a 3.8799675,3.8799675 0 0 0 -1.94336,3.36328 v 24.45312 61.0879 a 3.8799675,3.8799675 0 0 0 3.87891,3.8789 h 28.57422 a 3.8799675,3.8799675 0 0 0 3.8789,-3.8789 v -62.14844 l 15.88868,9.05664 a 3.8799675,3.8799675 0 0 0 3.85742,-0.008 l 15.66992,-9.01563 v 62.11524 a 3.8799675,3.8799675 0 0 0 3.87891,3.8789 h 28.57617 a 3.8799675,3.8799675 0 0 0 3.8789,-3.8789 v -61.0879 -24.17773 -0.27539 a 3.8799675,3.8799675 0 0 0 -1.94335,-3.36328 l -25.13086,-14.45899 a 3.8799675,3.8799675 0 0 0 -3.8711,0 l -23.09375,13.28711 -23.0957,-13.28711 a 3.8799675,3.8799675 0 0 0 -1.84961,-0.51562 z"
     transform="matrix(0.4393601,0,0,0.4393601,14.97505,-163.48882)" /><path
     style="opacity:1;fill:#f6fcfe;fill-opacity:1;stroke:none;stroke-width:0.47345203;stroke-opacity:1"
     d="m 497.74521,92.538976 c -0.30418,5e-6 -0.60307,0.07957 -0.86699,0.230799 l -12.241,7.016876 c -0.54197,0.310809 -0.87626,0.887789 -0.87636,1.512559 v 29.51959 c 1e-4,0.62476 0.33439,1.20174 0.87636,1.51256 l 12.241,7.01687 c 0.26392,0.15122 0.56281,0.2308 0.86699,0.2308 h 21.02592 l 10.23705,5.90809 c 0.99629,0.76693 2.85018,0.76693 3.93827,0 l 11.97673,-6.80149 c 1.16791,-0.67023 1.16791,-2.35489 0,-3.02512 l -9.78133,-5.60736 0.3977,-28.73094 c 0.009,-0.63328 -0.32697,-1.2214 -0.87636,-1.536411 l -12.24011,-7.016024 c -0.26393,-0.151226 -0.56281,-0.230794 -0.867,-0.230799 z m 1.67522,14.886264 h 20.4485 l -0.10731,17.2011 -20.34119,0.0613 z"
     id="path4237"
     inkscape:connector-curvature="0"
     sodipodi:nodetypes="cccccccccccccccccccccccc" /><path
     sodipodi:type="inkscape:offset"
     inkscape:radius="5.6554132"
     inkscape:original="M 703.47461 586.60938 L 703.47461 686.60938 L 731.70703 686.60938 L 731.70703 586.60938 L 703.47461 586.60938 z "
     style="fill:#38c3e6;fill-opacity:1;stroke:none;stroke-opacity:1"
     id="path4233"
     d="m 703.47461,580.95312 a 5.6559787,5.6559787 0 0 0 -5.65625,5.65626 v 100 a 5.6559787,5.6559787 0 0 0 5.65625,5.65624 h 28.23242 a 5.6559787,5.6559787 0 0 0 5.65625,-5.65624 v -100 a 5.6559787,5.6559787 0 0 0 -5.65625,-5.65626 z"
     transform="matrix(0.42533591,0,0,0.42533591,27.089704,-154.56125)" /><path
     sodipodi:type="inkscape:offset"
     inkscape:radius="3.8795795"
     inkscape:original="M 843.63086 586.60938 L 843.82422 639.77148 L 796.98242 586.92773 L 771.91992 601.54102 L 771.91992 687.08203 L 800.49414 687.08203 L 800.48047 633.87891 L 846.88477 686.92773 L 872.20703 672.14844 L 872.20703 671.875 L 872.20703 586.60938 L 843.63086 586.60938 z "
     style="fill:#38c3e6;fill-opacity:1;stroke:none;stroke-opacity:1"
     id="path4235"
     d="m 843.63086,582.73047 a 3.8799675,3.8799675 0 0 0 -3.87891,3.89258 l 0.15625,42.88281 -40.02343,-45.15234 a 3.8799675,3.8799675 0 0 0 -4.85743,-0.77735 l -25.0625,14.61328 a 3.8799675,3.8799675 0 0 0 -1.92382,3.35157 v 85.54101 a 3.8799675,3.8799675 0 0 0 3.8789,3.87891 h 28.57422 a 3.8799675,3.8799675 0 0 0 3.87891,-3.88086 l -0.0117,-42.8711 39.60351,45.27344 a 3.8799675,3.8799675 0 0 0 4.875,0.79688 L 874.16211,675.5 a 3.8799675,3.8799675 0 0 0 1.92383,-3.35156 V 671.875 586.60938 a 3.8799675,3.8799675 0 0 0 -3.87891,-3.87891 z"
     transform="matrix(0.437448,0,0,0.437448,20.545674,-162.3753)" /><g
     id="g4719"
     style="fill:#ff540e;fill-opacity:1"><rect
       ry="5.0212679"
       y="9.3193054"
       x="136.72681"
       height="105.51463"
       width="12.090349"
       id="rect4533"
       style="opacity:1;fill:#ff540e;fill-opacity:1;stroke:none;stroke-width:0.94451654;stroke-opacity:0.43987343" /><path
       sodipodi:nodetypes="ccccc"
       inkscape:connector-curvature="0"
       id="rect4530"
       d="m 116.28638,55.678619 h 46.01931 l -14.19286,11.55374 h -46.01931 z"
       style="opacity:1;fill:#ff540e;fill-opacity:1;stroke:none;stroke-width:0.47473818;stroke-opacity:0.43987343" /><path
       inkscape:transform-center-y="35.745379"
       inkscape:transform-center-x="70.96509"
       sodipodi:nodetypes="ccccc"
       inkscape:connector-curvature="0"
       id="rect4530-2"
       d="m 140.77194,17.87793 c 4.3832,-9.265834 13.0351,-12.873899 16.82141,-12.616017 v 19.141683 l -16.82141,12.616017 z"
       style="opacity:1;fill:#ff540e;fill-opacity:1;stroke:none;stroke-width:0.65277773;stroke-opacity:0.43987343" /><rect
       ry="5.0898829"
       y="60.465229"
       x="99.256569"
       height="53.997009"
       width="12.090349"
       id="rect4533-0"
       style="opacity:1;fill:#ff540e;fill-opacity:1;stroke:none;stroke-width:0.67567545;stroke-opacity:0.43987343" /><path
       sodipodi:nodetypes="ccccc"
       inkscape:connector-curvature="0"
       id="rect4530-7"
       d="m 116.28638,61.416592 h 46.01931 l -14.19286,11.553742 h -46.01931 z"
       style="opacity:1;fill:#ff540e;fill-opacity:1;stroke:none;stroke-width:0.47473818;stroke-opacity:0.43987343" /></g><path
     style="fill:#ff540e;fill-opacity:1;stroke:none;stroke-width:0.42533591;stroke-opacity:1"
     d="m 422.00085,92.539062 a 2.4056908,2.4056908 0 0 0 -2.40625,2.40625 v 42.533208 a 2.4056908,2.4056908 0 0 0 2.40625,2.40625 h 12.00781 a 2.4056908,2.4056908 0 0 0 2.40625,-2.40625 v -12.85743 h 14.71875 v 12.85743 a 2.4056908,2.4056908 0 0 0 2.40625,2.40625 h 12.00781 a 2.4056908,2.4056908 0 0 0 2.40625,-2.40625 V 94.945312 a 2.4056908,2.4056908 0 0 0 -2.40625,-2.40625 h -12.00781 a 2.4056908,2.4056908 0 0 0 -2.40625,2.40625 V 107.80078 H 436.41491 V 94.945312 a 2.4056908,2.4056908 0 0 0 -2.40625,-2.40625 z"
     id="path4669"
     inkscape:connector-curvature="0" /></svg>